<svg width="747" height="1418" viewBox="0 0 747 1418" fill="none" xmlns="http://www.w3.org/2000/svg">
<mask id="mask0_107_71" style="mask-type:alpha" maskUnits="userSpaceOnUse" x="0" y="0" width="747" height="1418">
<rect width="747" height="1418" fill="#D9D9D9"/>
</mask>
<g mask="url(#mask0_107_71)">
<mask id="mask1_107_71" style="mask-type:alpha" maskUnits="userSpaceOnUse" x="-46" y="-59" width="972" height="1627">
<path d="M724.455 -58.1696L-46.0001 -25.1594L22.2561 1567.93L792.711 1534.92L772.111 768.451C772.111 768.451 765.618 570.656 893.899 459.456C1022.18 348.255 724.455 -58.1696 724.455 -58.1696Z" fill="#D9D9D9"/>
</mask>
<g mask="url(#mask1_107_71)">
<path d="M722.015 572.177L792.291 617.311L779.919 1092.5L526.511 750.75L496.122 739.627C525.957 728.848 511.843 718.64 522.512 705.734L506.324 694.877C518.545 694.755 535.133 679.562 535.133 679.562L529.851 636.089L722.015 572.177Z" fill="#5A3714"/>
<path d="M697.317 668.979L702.049 658.611L707.459 667.15L715.144 648.023L719.466 658.127L731.957 646.32L726.427 672.267L717.611 660.718L711.356 677.637L703.294 666.88L697.317 668.979Z" fill="#432416"/>
<path d="M543.192 655.367L547.924 644.999L553.334 653.538L561.018 634.411L565.34 644.515L577.831 632.708L572.301 658.656L563.486 647.106L557.23 664.025L549.169 653.269L543.192 655.367Z" fill="#432416"/>
<path d="M606.478 739.353L594.674 727.947L591.919 742.242L571.544 720.65L571.071 736.47L548.109 727.223L569.188 759.093L574.922 738.967L592.219 758.352L597.36 739.687L606.478 739.353Z" fill="#432416"/>
<path d="M875.431 656.083C872.415 655.764 869.801 655.494 867.66 655.274L771.868 1016.65L768.339 1029.97L758.736 1020.09L513.584 768.095C502.048 777.971 488.037 794.639 473.163 815.429C456.122 839.25 438.459 867.746 422.765 895.821C407.066 923.907 393.433 951.397 384.404 973.187C379.878 984.107 376.592 993.397 374.756 1000.52C373.836 1004.08 373.336 1006.9 373.178 1008.98C373.036 1010.84 373.219 1011.54 373.205 1011.54C373.205 1011.54 373.205 1011.54 373.204 1011.54C419.318 1113.51 584.682 1347.85 858.978 1450.14L1219.15 953.701C1187.65 867.68 1145.62 799.852 1105.04 752.274C1084.44 728.124 1064.3 709.28 1046.19 695.933C1027.95 682.486 1012.29 675 1000.65 672.843C974.292 667.965 939.445 663.408 911.066 660.062C896.902 658.391 884.395 657.028 875.431 656.083Z" fill="#911A1D" stroke="black" stroke-width="15.6025"/>
<path d="M792.929 1112.64C786.265 1108.86 776.472 1102.39 764.383 1094.4C758.731 1090.67 752.577 1086.6 746.006 1082.32C724.799 1068.51 699.299 1052.53 672.467 1038.51L661.814 788.809C677.713 777.849 695.801 769.708 714.754 764.984L844.005 944.971C844.362 953.722 841.337 965.683 836.549 979.501C832.272 991.842 826.619 1005.59 820.797 1019.74C820.064 1021.52 819.328 1023.31 818.592 1025.1C812.016 1041.13 805.424 1057.5 800.569 1072.74C795.874 1087.49 792.784 1101.24 792.929 1112.64Z" fill="#CC6328" stroke="#AF5623" stroke-width="1.25717"/>
<path d="M711.891 704.268L711.898 704.267C712.594 704.238 713.287 704.28 714.006 704.34C714.187 704.355 714.371 704.372 714.558 704.389C714.94 704.423 715.331 704.458 715.726 704.484C718.919 723.532 719.965 742.951 718.845 762.379C696.878 767.671 676.125 777.537 657.956 791.324C644.419 777.251 623.924 756.587 614.296 746.927C624.463 739.32 635.129 732.422 646.213 726.283C660.252 718.707 674.959 712.522 690.12 707.818C697.221 705.677 704.542 704.483 711.891 704.268Z" fill="#CC6328" stroke="#AF5623" stroke-width="1.25717"/>
<path d="M849.425 1147.31L532.93 734.534L463.079 783.077L513.457 944.511L569.379 940.293L535.311 972.574L775.713 1174.52L849.425 1147.31Z" fill="#213521" stroke="black" stroke-width="12.7657"/>
<path d="M850.781 736.504L906.417 727.149L871.897 631.612L773.43 606.037L753.998 1031.51L803.404 1092.44L908.881 783.686L850.193 738.879L847.75 737.014L850.781 736.504Z" fill="#213521" stroke="black" stroke-width="2.66702"/>
<path opacity="0.38" d="M605.997 1124.7L863.179 1313.57L779.082 1227.99L605.997 1124.7Z" fill="black"/>
<g style="mix-blend-mode:multiply" opacity="0.25">
<path d="M724.35 1118.37L596.062 929.067L548.528 974.608L724.35 1118.37Z" fill="#192919"/>
</g>
<path d="M545.083 321.542C544.25 320.627 543.357 319.648 542.484 318.724L541.607 317.824C541.917 318.138 542.211 318.445 542.473 318.728C543.357 319.648 544.23 320.573 545.083 321.542Z" fill="#BDA888"/>
<path d="M689.145 185.284L688.85 185.391C688.861 185.363 688.877 185.339 688.898 185.318C688.92 185.297 688.945 185.281 688.973 185.271C689.001 185.261 689.031 185.257 689.06 185.259C689.09 185.261 689.119 185.27 689.145 185.284V185.284Z" fill="#BDA888"/>
<path d="M541.389 317.603C538.66 314.832 534.824 311.16 532.293 308.865L526.597 303.701L532.293 308.865C534.824 311.16 538.66 314.832 541.389 317.603Z" fill="#BDA888"/>
<path d="M584.889 512.782C597.97 518.324 609.98 526.11 620.379 535.789C613.431 539.734 606.262 543.371 599.075 546.892C592.501 550.055 585.857 553.061 579.171 555.985C578.61 541.364 580.544 526.754 584.889 512.782V512.782Z" fill="white"/>
<path d="M542.36 546.537C545.512 545.388 559.169 554.67 566.512 559.672L568 560.678C564.065 562.319 560.134 564.008 556.171 565.574C548.536 568.592 540.855 571.472 533.129 574.215C534.003 564.395 537.165 554.916 542.36 546.537V546.537Z" fill="white"/>
<path d="M450.875 450.432C453.2 456.805 453.583 463.724 451.975 470.315C450.366 476.905 446.84 482.871 441.841 487.457C436.842 492.042 430.595 495.043 423.89 496.078C417.186 497.113 410.325 496.137 404.176 493.272C398.026 490.408 392.864 485.784 389.343 479.986C385.822 474.187 384.1 467.475 384.394 460.697C384.689 453.92 386.987 447.382 390.997 441.91C395.008 436.439 400.551 432.28 406.926 429.959C415.47 426.865 424.892 427.282 433.129 431.119C441.366 434.956 447.747 441.9 450.875 450.432V450.432ZM404.347 457.565C402.673 458.175 401.216 459.268 400.163 460.706C399.11 462.144 398.506 463.861 398.429 465.642C398.352 467.423 398.805 469.186 399.73 470.71C400.656 472.233 402.012 473.448 403.627 474.201C405.243 474.953 407.046 475.21 408.807 474.938C410.569 474.666 412.21 473.878 413.524 472.673C414.837 471.469 415.764 469.901 416.187 468.17C416.61 466.439 416.51 464.621 415.9 462.946C415.082 460.701 413.405 458.872 411.238 457.863C409.072 456.853 406.593 456.746 404.347 457.565V457.565Z" fill="white"/>
<path d="M555.85 412.185C553.539 405.81 553.169 398.893 554.788 392.308C556.407 385.723 559.942 379.766 564.946 375.19C569.95 370.613 576.198 367.623 582.901 366.596C589.604 365.57 596.46 366.554 602.604 369.423C608.748 372.292 613.904 376.919 617.419 382.718C620.934 388.516 622.651 395.227 622.354 402.001C622.056 408.776 619.757 415.31 615.747 420.778C611.736 426.246 606.195 430.402 599.823 432.722C591.268 435.82 581.833 435.398 573.589 431.548C565.345 427.697 558.965 420.734 555.85 412.185V412.185ZM573.755 395.837C572.081 396.447 570.625 397.54 569.571 398.978C568.518 400.416 567.914 402.133 567.837 403.914C567.76 405.695 568.213 407.458 569.139 408.982C570.064 410.505 571.42 411.72 573.035 412.473C574.651 413.225 576.454 413.482 578.215 413.21C579.977 412.938 581.618 412.15 582.932 410.945C584.245 409.741 585.172 408.173 585.595 406.442C586.018 404.711 585.918 402.893 585.308 401.218C584.49 398.973 582.813 397.144 580.646 396.135C578.48 395.125 576.001 395.018 573.755 395.837V395.837Z" fill="white"/>
<path d="M798.934 661.859L792.445 663.517C790.111 664.136 787.748 664.607 785.451 665.359C771.574 669.494 758.674 676.383 747.52 685.617C733.973 696.8 723.506 711.257 717.111 727.618C714.967 726.851 712.836 726.189 710.675 725.576C706.857 724.529 703.022 723.672 699.131 722.994C693.047 721.857 686.855 721.399 680.67 721.629C680.505 717.912 680.81 714.189 681.58 710.548C680.652 710.263 679.673 710.181 678.711 710.308C677.748 710.435 676.825 710.768 676.003 711.285C675.181 711.802 674.481 712.491 673.949 713.303C673.418 714.116 673.069 715.034 672.925 715.994C672.623 718.042 672.436 720.072 672.282 722.09C672.016 726.554 672.019 731.029 672.291 735.493C672.58 741.603 673.264 747.594 674.101 753.602C666.084 752.806 657.868 752.132 649.638 752.023C638.693 751.816 627.751 752.593 616.945 754.346C606.071 756.147 595.407 759.041 585.115 762.984C579.69 765.095 574.572 767.923 569.898 771.393C567.5 773.161 565.258 775.132 563.197 777.284C562.539 777.987 561.913 778.678 561.317 779.383C557.936 776.968 554.699 774.36 551.62 771.57C548.996 769.151 546.397 766.6 543.908 763.985C542.398 762.383 540.351 761.391 538.158 761.197C535.964 761.003 533.776 761.622 532.008 762.935C533.151 764.566 534.382 766.104 535.55 767.738C530.653 771.289 525.623 774.609 520.447 777.629C513.884 781.356 506.969 784.427 499.803 786.797C492.839 789.171 485.608 790.672 478.275 791.267C474.129 791.542 469.965 791.338 465.866 790.658C466.102 790.267 466.371 789.901 466.66 789.491C468.59 786.413 470.332 783.222 471.879 779.935C473.539 776.514 474.861 772.938 475.825 769.26C476.95 765.15 477.282 760.864 476.805 756.63L476.194 751.978L471.481 751.05C465.722 749.885 460.148 747.944 454.911 745.279C452.219 743.942 449.606 742.453 447.083 740.82C446.131 740.216 445.178 739.54 444.24 738.87L444.761 737.827C445.809 735.628 446.642 733.332 447.248 730.973C448.465 726.375 449.094 721.641 449.122 716.884C449.049 712.275 448.472 707.687 447.402 703.203C446.277 698.857 444.776 694.616 442.918 690.529L434.986 693.31L436.224 699.184L436.327 699.902C433.789 702.008 430.914 703.674 427.824 704.829C426.853 705.151 425.864 705.418 424.862 705.628C424.889 702.072 424.539 698.523 423.818 695.04C422.544 689.268 420.7 683.637 418.314 678.229C415.507 671.824 412.286 665.609 408.669 659.623C410.81 654.761 413.078 649.949 415.633 645.288C417.503 641.728 419.618 638.302 421.963 635.035C422.991 633.402 424.127 631.839 425.366 630.359C426.437 633.236 427.738 636.022 429.255 638.691C431.972 643.541 435.675 647.767 440.126 651.097C444.66 654.334 449.836 656.563 455.304 657.632C460.379 658.581 465.556 658.87 470.705 658.49C474.451 662.143 478.933 664.956 483.851 666.74L485.238 662.92C481.04 660.606 477.386 657.42 474.521 653.578C472.883 651.523 471.4 649.351 470.081 647.079C487.788 646.417 505.428 644.541 522.878 641.464C542.531 638.084 561.857 633.027 580.646 626.347C599.344 619.481 617.482 611.177 634.896 601.508C643.598 596.691 652.139 591.568 660.45 586.016C664.62 583.278 668.69 580.332 672.693 577.204C674.678 575.627 676.651 574.019 678.579 572.219C679.798 571.09 680.959 569.898 682.055 568.649C682.462 568.927 682.869 569.242 683.275 569.521C689.112 573.33 695.361 576.465 701.904 578.868L703.835 573.399C697.839 571.012 692.131 567.957 686.818 564.293C682.752 561.522 679.085 558.209 675.916 554.445C681.206 552.21 686.335 549.612 691.267 546.67C697.435 542.964 703.308 538.786 708.833 534.175C714.414 529.585 719.569 524.5 724.235 518.983C728.946 513.453 733.132 507.496 736.739 501.191L738.914 497.559L734.912 495.775L706.365 483.022C707.422 479.652 708.272 476.221 708.909 472.747C709.98 467.711 710.005 462.509 708.982 457.462L708.051 454.072L704.285 454.506C702.77 454.664 701.246 454.727 699.723 454.694C698.167 454.67 696.614 454.544 695.075 454.316C693.541 454.091 692.03 453.728 690.56 453.231C692.725 448.685 694.427 443.933 695.641 439.046C697.196 432.78 698.187 426.386 698.6 419.943C699.021 413.565 699.005 407.165 698.554 400.789C698.347 397.611 697.926 394.449 697.628 391.291L696.161 381.881L695.013 374.549L689.444 379.6C685.862 382.87 681.852 385.636 677.522 387.821C675.373 388.877 673.145 389.762 670.857 390.469C670.147 390.727 669.369 390.865 668.627 391.038C668.613 388.716 668.452 386.397 668.145 384.096C667.615 380.173 666.773 376.298 665.629 372.509C663.294 365.073 660.078 357.943 656.049 351.272C652.114 344.659 647.651 338.374 642.705 332.479L635.046 323.936L629.344 318.324C631.933 315.196 634.067 311.719 635.683 307.994C637.791 302.959 638.624 297.481 638.11 292.046C637.568 286.566 635.606 281.322 632.416 276.833C629.226 272.344 624.919 268.766 619.922 266.451L616.269 264.821L614.995 268.649C611.842 277.455 606.331 285.226 599.063 291.115C593.175 296.001 586.325 299.594 578.958 301.659C580.612 294.976 581.51 288.129 581.634 281.245C581.699 276.771 581.257 272.304 580.316 267.93C579.355 263.315 577.377 258.973 574.526 255.22L569.956 258.932C571.036 260.373 571.935 261.94 572.632 263.6C570.368 264.181 568.215 265.131 566.258 266.41C563.267 268.52 560.78 271.266 558.976 274.451C556.01 280.377 553.995 286.733 553.006 293.286C551.866 299.454 550.906 305.483 549.327 311.116C548.358 314.775 546.93 318.297 545.079 321.598C544.246 320.683 543.353 319.704 542.469 318.783C542.208 318.501 541.913 318.194 541.603 317.88L541.387 317.654C538.658 314.883 534.822 311.211 532.292 308.915L526.595 303.752L525.067 311.365C520.949 332.247 513.755 352.403 503.719 371.173C498.79 380.555 493.084 389.508 486.66 397.937C481.935 404.239 476.589 410.049 470.702 415.282C469.402 406.494 467.631 397.782 465.396 389.184C463.963 383.613 462.401 378.089 460.591 372.654C458.859 366.903 456.51 361.356 453.587 356.11L449.691 349.498L446.275 356.58C444.462 360.397 442.278 364.025 439.755 367.415C438.2 369.551 436.35 371.456 434.26 373.073C430.046 365.188 425.588 357.502 420.94 349.897C415.524 341.02 409.394 332.599 402.611 324.718L398.291 328.449C400.873 331.653 403.26 335.06 405.62 338.527C405.166 338.619 404.719 338.697 404.252 338.818C402.188 339.351 400.181 340.082 398.259 341.002C394.359 342.878 390.89 345.541 388.069 348.823V348.823L387.196 349.774L387.07 351.234C386.544 357.349 385.862 363.435 384.885 369.483C383.908 375.53 382.629 381.553 381.514 387.858C380.247 394.347 379.851 400.975 380.336 407.568C380.764 412.192 381.546 416.776 382.676 421.279L363.728 429.013L368.29 440.196L396.247 428.789C390.807 432.434 386.338 437.353 383.23 443.118C380.123 448.883 378.469 455.319 378.414 461.868C378.359 468.417 379.904 474.881 382.914 480.697C385.924 486.513 390.309 491.507 395.688 495.243C398.48 504.283 400.155 513.63 400.676 523.077C400.89 525.177 400.666 527.299 400.018 529.308C399.37 531.317 398.311 533.169 396.909 534.748C393.981 537.84 390.229 540.032 386.097 541.065L382.356 542.001L383.038 545.811C384.964 555.489 389.694 564.387 396.639 571.396C400.077 575.043 404.135 578.049 408.625 580.276C412.328 582.151 416.466 582.996 420.608 582.722C421.461 585.549 422.041 588.452 422.34 591.389C422.696 595.397 422.49 599.435 421.727 603.386C421.138 603.808 420.518 604.18 419.943 604.609C409.454 612.514 400.415 622.179 393.229 633.173C391.285 629.065 389.574 624.851 388.105 620.55C386.493 615.674 385.278 610.675 384.474 605.603C384.089 603.119 383.848 600.615 383.752 598.103C383.639 595.831 383.713 593.553 383.976 591.294L385.698 579.6L374.964 584.389C373.045 585.218 371.048 585.856 369.003 586.293C367.009 586.738 364.968 586.933 362.926 586.875C360.633 586.843 358.394 586.168 356.465 584.928C363.663 561.347 366.492 536.65 364.812 512.052C364.074 499.234 362.604 486.467 360.409 473.817C359.332 467.518 358.13 461.241 356.878 455.031L355 445.965C354.524 443.136 354.232 440.279 354.126 437.412C354.009 425.169 354.848 412.936 356.636 400.825C358.208 388.418 360.028 375.921 361.328 363.199C362.982 350.181 363.092 337.014 361.657 323.97C360.813 316.741 358.357 309.793 354.468 303.641C351.439 299.149 347.228 295.58 342.3 293.328C351.847 270.246 363.858 248.262 378.124 227.758C385.043 217.681 392.43 207.92 399.989 198.231L397.595 200.188C399.488 197.524 401.451 194.919 403.322 192.227C409.4 183.321 415.449 174.402 421.108 165.149C426.767 155.896 432.299 146.629 437.379 137.026C439.23 133.476 441.026 129.945 442.764 126.386C444.502 122.828 446.098 119.382 447.631 115.728C448.028 116.351 448.469 116.958 448.841 117.578C448.931 117.826 449.022 118.073 449.194 118.279C450.944 121.347 452.381 124.584 453.483 127.94C453.91 129.113 454.15 130.341 454.441 131.54C455.063 133.987 455.491 136.48 455.72 138.995C456.011 142.749 455.78 146.525 455.031 150.215L458.108 150.934L461.175 151.657C463.218 143.152 463.134 134.275 460.933 125.81C460.778 125.184 460.494 124.605 460.36 123.971C467.203 115.225 473.935 106.374 480.328 97.1951C494.893 76.6367 507.535 54.781 518.093 31.9047C520.485 34.2871 522.847 36.7537 525.114 39.2301C529.291 43.8017 533.266 48.5564 537.045 53.4433C540.825 58.3302 544.455 63.3082 547.985 68.347C551.246 72.9476 554.293 77.6628 557.435 82.4044C556.84 85.6373 556.588 88.9237 556.681 92.2094L560.246 92.3606L563.805 92.5263C564.421 88.4754 565.701 84.554 567.594 80.92C568.265 79.7181 569.023 78.5664 569.861 77.4739C577.533 87.6575 585.368 97.5867 593.734 107.2C603.711 118.911 614.542 129.865 626.14 139.972C637.885 149.91 650.362 158.95 663.465 167.015C673.32 173.119 683.49 178.701 693.933 183.735C692.394 184.333 690.823 184.844 689.227 185.268C689.201 185.254 689.173 185.245 689.143 185.243C689.114 185.241 689.085 185.245 689.057 185.255C689.03 185.265 689.005 185.281 688.984 185.301C688.963 185.322 688.947 185.346 688.936 185.374C688.248 185.624 687.517 185.793 686.804 185.944C685.915 186.146 685.009 186.269 684.115 186.424C678.919 187.327 673.609 187.359 668.403 186.519L667.548 190.158L666.688 193.786C672.983 195.536 679.542 196.131 686.048 195.542C690.282 199.971 694.862 204.042 699.423 208.096C705.744 213.803 711.915 219.679 717.937 225.724C729.965 237.632 741.093 250.417 751.229 263.974C761.276 277.765 770.877 291.937 779.993 306.384C787.616 318.304 794.507 330.259 801.837 342.615C799.638 343.161 797.503 343.939 795.468 344.936C792.709 346.285 790.192 348.083 788.023 350.257C787.372 350.946 786.751 351.684 786.149 352.439C781.695 347.408 777.071 342.512 772.199 337.804L766.814 343.093C771.36 348.042 775.852 353.547 780.094 359.033C780.744 359.881 781.316 360.782 781.959 361.644L781.894 361.899L783.765 364.459C800.785 388.543 815.812 413.975 828.698 440.502C840.721 464.297 851.987 488.624 862.383 513.171L851.805 513.443L847.696 504.91L840.433 508.02L847.996 526.701L851.784 536.058C853.199 539.138 854.678 542.194 856.196 545.224C861.71 556.072 867.751 566.497 874.336 576.808C873.826 577.446 873.278 578.053 872.695 578.625C871.341 580.042 869.817 581.285 868.157 582.326C865.412 584.044 862.284 585.054 859.052 585.266C857.433 583.266 856.005 581.118 854.788 578.85L843.846 583.971C846.076 588.476 848.946 592.636 852.367 596.319C855.831 600.16 860.033 603.262 864.723 605.442L881.422 612.506C871.484 623.57 860.033 633.176 847.409 641.037C832.472 650.533 816.104 657.563 798.934 661.859V661.859Z" fill="#5A3714"/>
<path d="M459.51 644.926C460.995 647.556 462.718 650.045 464.657 652.361C461.9 652.271 459.16 651.893 456.482 651.233C452.029 650.248 447.855 648.273 444.269 645.456C440.683 642.638 437.777 639.049 435.767 634.956C433.929 631.28 432.458 627.432 431.373 623.468C436.206 618.387 441.731 614.015 447.785 610.479C454.903 606.631 462.439 603.61 470.245 601.478L474.866 600.111C503.52 592.773 531.558 583.208 558.722 571.502C563.878 569.33 568.987 567.03 574.1 564.74L574.373 564.921L574.637 564.507C583.707 560.434 592.719 556.236 601.589 551.712C614.517 545.363 626.902 537.964 638.62 529.589C639.07 529.246 639.445 528.815 639.723 528.322C640 527.828 640.174 527.284 640.233 526.721C640.293 526.159 640.238 525.59 640.07 525.05C639.902 524.51 639.626 524.009 639.258 523.579C634.961 526.774 630.505 529.749 625.906 532.491C611.924 520.878 589.159 503.69 581.933 507.542C575.397 511.143 573.569 537.865 573.084 556.835C572.032 556.121 570.969 555.412 569.862 554.682C555.263 544.719 545.896 538.846 540.161 540.936C533.631 543.316 528.072 563.513 526.816 576.353C521.925 578.05 517.086 579.752 512.131 581.339C500.12 585.167 487.964 588.598 475.857 591.328C475.2 591.082 474.528 590.879 473.845 590.721C471.762 590.293 469.651 590.011 467.529 589.878C459.019 589.278 450.471 590.281 442.33 592.833C437.916 594.329 433.642 596.208 429.557 598.451C429.853 595.881 429.956 593.293 429.868 590.708C429.7 585.74 428.804 580.823 427.207 576.115L425.961 572.498L421.939 573.867C418.618 574.72 415.096 574.257 412.108 572.574C408.534 570.786 405.308 568.375 402.579 565.456C397.674 560.346 394.021 554.168 391.907 547.408C395.975 545.587 399.565 542.847 402.397 539.405C404.298 537.042 405.689 534.311 406.482 531.384C407.154 528.573 407.368 525.672 407.116 522.792C406.404 514.693 404.772 506.702 402.251 498.972C407.426 501.286 413.032 502.479 418.7 502.471C424.369 502.464 429.972 501.257 435.141 498.93C444.13 494.886 451.325 487.69 455.367 478.701C459.409 469.712 460.017 459.553 457.077 450.146C454.137 440.739 447.851 432.736 439.41 427.649C430.968 422.562 420.955 420.744 411.264 422.539L444.909 408.816L440.346 397.633L389.916 418.205C388.68 414.554 387.803 410.792 387.297 406.972C386.499 400.982 386.679 394.903 387.831 388.972C388.771 382.889 390.016 376.707 391.265 370.536C392.327 364.957 393.502 359.386 394.904 353.768C396.85 351.621 399.19 349.867 401.796 348.6C403.238 347.91 404.744 347.361 406.293 346.961C407.644 346.603 409.024 346.361 410.417 346.238C411.882 348.654 413.341 351.084 414.763 353.515C419.866 362.234 424.597 371.271 429.146 380.241L430.72 383.323L433.948 382.147C436.572 381.159 438.981 379.673 441.042 377.77C442.912 376.099 444.619 374.253 446.138 372.257C447.403 370.577 448.528 368.949 449.619 367.259C450.624 369.818 451.54 372.531 452.417 375.173C454.124 380.425 455.61 385.806 456.966 391.199C459.765 401.885 461.698 412.781 462.744 423.778L463.332 431.376L469.521 427.158C478.757 420.537 486.903 412.515 493.665 403.382C500.455 394.591 506.481 385.235 511.676 375.417C520.777 358.097 527.545 339.648 531.803 320.552C532.712 321.44 533.644 322.258 534.523 323.132C537.104 325.627 539.487 328.32 541.65 331.186L544.918 335.772L548.515 331.561C552.806 326.214 555.863 319.986 557.467 313.32C559.187 307.002 560.136 300.745 561.223 294.731C561.968 288.989 563.489 283.376 565.745 278.044C567.462 274.228 570.512 271.171 574.324 269.445C575.071 273.271 575.392 277.168 575.279 281.065C574.992 289.234 573.585 297.324 571.099 305.11L569.54 310.164L574.781 309.326C585.27 307.602 595.127 303.169 603.378 296.467C610.582 290.687 616.303 283.271 620.065 274.835C623.023 276.859 625.503 279.506 627.33 282.59C629.157 285.674 630.287 289.12 630.641 292.687C630.852 297.001 630.145 301.312 628.566 305.333C626.987 309.354 624.572 312.994 621.482 316.012L618.995 318.685L621.666 321.368L629.46 329.143L636.74 337.349C641.384 342.938 645.57 348.89 649.26 355.15C652.944 361.314 655.882 367.893 658.012 374.751C659.011 378.131 659.744 381.584 660.204 385.079C660.687 388.354 660.739 391.679 660.358 394.968L659.603 400.02L664.369 399.721C667.333 399.52 670.262 398.972 673.098 398.088C675.806 397.266 678.444 396.232 680.989 394.993C683.836 393.566 686.562 391.908 689.14 390.036L689.481 392.276C689.749 395.287 690.136 398.29 690.328 401.291C690.728 407.293 690.716 413.316 690.292 419.317C689.879 425.257 688.943 431.148 687.494 436.924C686.149 442.463 684.016 447.78 681.158 452.712L678.701 456.605L682.431 458.78C685.947 460.771 689.818 462.055 693.827 462.561C695.728 462.82 697.643 462.96 699.562 462.982C700.134 462.98 700.699 462.958 701.267 462.945C701.377 465.778 701.185 468.614 700.693 471.405C699.968 475.65 698.907 479.83 697.523 483.907L696.379 487.456L699.726 488.917L727.573 501.085C724.865 505.682 721.774 510.042 718.331 514.117C713.984 519.349 709.171 524.174 703.951 528.535C698.753 532.96 693.22 536.976 687.403 540.549C681.638 544.124 675.603 547.244 669.354 549.881L665.317 551.547L667.669 554.955C669.862 558.078 672.409 560.937 675.258 563.475C674.453 564.38 673.599 565.24 672.7 566.052C671.041 567.62 669.184 569.113 667.323 570.596C663.526 573.552 659.661 576.325 655.603 579.035C647.554 584.405 639.195 589.426 630.643 594.151C613.62 603.609 595.889 611.733 577.61 618.45C559.277 624.959 540.421 629.886 521.247 633.176C502.113 636.606 482.738 638.524 463.302 638.912L456.461 638.968L459.44 644.902L459.51 644.926ZM550.428 469.482C549.79 468.823 549.02 468.307 548.169 467.965L545.97 466.914C544.504 466.437 543.05 466.223 541.577 465.895C530.636 465.514 519.736 467.411 509.568 471.466C504.525 473.272 499.595 475.378 494.803 477.772C489.677 480.143 484.992 483.371 480.951 487.318C479.674 488.763 478.901 490.585 478.748 492.508C478.649 494.218 478.9 495.931 479.485 497.541C480.551 500.292 482.059 502.851 483.951 505.115C487.096 508.99 490.747 512.427 494.805 515.333C494.975 515.457 495.169 515.545 495.374 515.591C495.58 515.638 495.793 515.643 496 515.605C496.207 515.567 496.404 515.487 496.58 515.371C496.755 515.255 496.906 515.104 497.021 514.928C497.53 514.163 497.75 513.242 497.641 512.331C497.532 511.419 497.102 510.575 496.427 509.953C493.544 507.4 490.892 504.598 488.501 501.58C485.541 497.905 483.507 492.858 485.658 491.135C489.178 487.83 493.196 485.099 497.565 483.043C502.127 480.743 506.818 478.708 511.614 476.948C520.928 473.199 530.903 471.371 540.941 471.574C542.014 471.841 543.162 471.984 544.178 472.296C544.904 472.75 546.321 473.16 546.544 473.505C547.812 475.207 548.695 477.164 549.134 479.24C549.755 481.621 550.171 484.05 550.378 486.501C550.502 487.816 550.552 489.136 550.528 490.456C550.498 491.286 550.736 492.102 551.204 492.787C551.673 493.471 552.349 493.988 553.133 494.26L553.48 494.377C553.691 494.441 553.913 494.459 554.132 494.432C554.35 494.404 554.56 494.33 554.748 494.215C554.937 494.101 555.099 493.948 555.224 493.766C555.349 493.585 555.435 493.38 555.475 493.163C555.805 490.824 555.866 488.454 555.656 486.101C555.466 483.336 555.045 480.591 554.396 477.895C553.798 474.803 552.434 471.91 550.428 469.482ZM625.96 386.626C623.085 378.777 617.843 372.014 610.958 367.273C604.074 362.532 595.886 360.045 587.528 360.158L618.125 349.775L614.255 338.352L529.328 367.169L533.206 378.613L563.879 368.203C557.901 372.687 553.287 378.743 550.55 385.697C547.814 392.65 547.063 400.227 548.382 407.582C549.701 414.937 553.037 421.781 558.019 427.35C563 432.92 569.431 436.996 576.594 439.124C583.757 441.252 591.37 441.348 598.585 439.401C605.799 437.455 612.331 433.542 617.451 428.1C622.572 422.658 626.079 415.9 627.583 408.58C629.087 401.261 628.528 393.668 625.968 386.648L625.96 386.626ZM644.514 513.925C646.515 514.511 648.379 515.489 649.999 516.801C651.267 517.844 652.34 519.103 653.17 520.52C654.022 521.942 654.626 523.498 654.957 525.122L658.066 524.927C657.95 522.816 657.458 520.741 656.614 518.802C655.791 516.846 654.629 515.05 653.182 513.496C651.714 511.922 649.997 510.6 648.1 509.584C646.861 508.893 645.563 508.318 644.219 507.866C643.969 507.78 643.704 507.75 643.441 507.775C643.178 507.801 642.924 507.882 642.695 508.014C642.466 508.146 642.268 508.325 642.114 508.54C641.96 508.755 641.854 508.999 641.802 509.258C641.596 510.241 641.765 511.264 642.274 512.129C642.783 512.994 643.596 513.638 644.554 513.935L644.514 513.925Z" fill="#E8C5AA"/>
<path d="M398.505 643.478C402.14 637.338 406.278 631.509 410.875 626.052C415.224 620.842 420.136 616.129 425.522 612L426.201 611.521C431.993 607.166 438.404 603.7 445.22 601.239C448.746 600.096 452.363 599.258 456.033 598.737C451.987 600.226 448.052 602.002 444.258 604.051C436.568 608.387 429.593 613.884 423.58 620.349C420.663 623.556 417.943 626.936 415.435 630.471C412.888 633.915 410.576 637.526 408.515 641.28C406.65 644.556 404.931 647.9 403.278 651.257C401.076 655.716 399.038 660.233 397.162 664.808C394.1 672.322 391.439 679.97 389.123 687.663C386.59 695.594 384.676 703.653 382.536 711.66L379.865 723.76L378.522 729.807C378.288 730.77 378.078 731.931 377.836 732.738L377.067 735.078C374.425 741.894 370.407 748.092 365.263 753.286C359.933 758.961 354.04 764.081 347.676 768.567C334.974 777.747 320.81 784.709 305.784 789.159C291.273 793.678 275.753 793.824 261.16 789.578C260.245 788.956 259.41 788.225 258.672 787.401C257.443 786.103 256.304 784.723 255.265 783.268C253.012 780.262 250.936 776.875 248.894 773.512C244.847 766.687 241.089 759.55 237.516 752.321L232.225 741.416L229.691 735.965C229.122 734.733 228.78 733.409 228.681 732.056C228.472 729.308 229.191 726.571 230.722 724.28C231.498 723.129 232.457 722.112 233.562 721.271C234.807 720.341 236.692 719.058 238.253 718.025C251.503 709.316 265.788 702.297 280.778 697.129L283.592 696.189C284.56 695.836 285.509 695.564 286.059 695.436C287.381 695.122 288.748 695.037 290.099 695.183C292.842 695.472 295.404 696.688 297.363 698.629C298.359 699.621 299.189 700.768 299.819 702.024L302.71 707.516C304.655 711.182 306.661 714.814 308.768 718.421C310.875 722.029 313.046 725.613 315.442 729.176C317.906 733.099 320.855 736.696 324.218 739.883C326.644 741.979 329.635 743.31 332.816 743.709C335.532 744.052 338.288 743.918 340.959 743.313C345.683 742.237 350.172 740.308 354.204 737.621C358.201 735.034 361.749 731.81 364.706 728.078C366.269 726.141 367.592 724.022 368.646 721.767C369.654 719.534 370.438 717.207 370.989 714.82C373.209 707.101 374.885 699.19 377.53 691.633C381.281 679.495 385.992 667.675 391.619 656.286C393.006 653.404 394.484 650.501 396.014 647.677C396.858 646.248 397.671 644.867 398.505 643.478ZM261.506 713.305C246.785 720.266 235.703 728.217 236.768 731.071C237.832 733.925 250.632 730.589 265.367 723.635C280.102 716.68 291.159 708.727 290.094 705.873C289.03 703.019 276.23 706.355 261.506 713.305V713.305Z" fill="#CC6328"/>
<path d="M644.252 507.905C645.596 508.358 646.894 508.933 648.132 509.623C650.03 510.639 651.747 511.961 653.214 513.536C654.661 515.089 655.824 516.885 656.647 518.841C657.491 520.78 657.983 522.855 658.099 524.966L654.989 525.161C654.659 523.537 654.054 521.981 653.203 520.56C652.373 519.143 651.3 517.883 650.031 516.84C648.412 515.528 646.547 514.551 644.547 513.964C643.606 513.654 642.812 513.008 642.318 512.15C641.823 511.291 641.661 510.281 641.864 509.311C641.915 509.054 642.02 508.811 642.171 508.598C642.322 508.384 642.517 508.205 642.743 508.072C642.968 507.939 643.219 507.856 643.479 507.827C643.74 507.798 644.003 507.825 644.252 507.905V507.905Z" fill="#1A110C"/>
<path d="M391.676 656.271C386.049 667.66 381.337 679.48 377.586 691.618C374.941 699.175 373.266 707.085 371.045 714.805C370.495 717.192 369.71 719.519 368.702 721.752C367.648 724.007 366.325 726.126 364.762 728.063C361.805 731.795 358.258 735.019 354.261 737.606C350.229 740.293 345.74 742.222 341.015 743.298C338.345 743.903 335.589 744.037 332.872 743.694C329.692 743.295 326.7 741.964 324.275 739.868C320.912 736.681 317.963 733.084 315.498 729.161C313.103 725.598 310.92 722.018 308.824 718.406C306.728 714.795 304.712 711.167 302.766 707.501L299.875 702.009C299.245 700.753 298.416 699.606 297.419 698.614C295.46 696.673 292.898 695.457 290.155 695.168C288.804 695.022 287.438 695.107 286.116 695.421C285.565 695.549 284.624 695.843 283.648 696.174L280.834 697.115C265.844 702.282 251.559 709.301 238.31 718.01C236.748 719.043 234.864 720.326 233.618 721.256C232.514 722.097 231.555 723.114 230.778 724.265C229.248 726.556 228.529 729.294 228.737 732.041C228.836 733.394 229.179 734.718 229.747 735.951L232.282 741.401L237.572 752.306C241.178 759.523 244.944 766.682 248.951 773.497C250.993 776.86 253.069 780.247 255.322 783.253C256.361 784.708 257.499 786.089 258.729 787.386C259.466 788.21 260.302 788.941 261.216 789.563C275.809 793.809 291.33 793.663 305.841 789.144C320.867 784.694 335.031 777.732 347.732 768.552C354.097 764.066 359.989 758.946 365.319 753.271C370.463 748.077 374.482 741.879 377.124 735.063L377.892 732.724C378.156 731.908 378.388 730.739 378.579 729.792L379.922 723.745L382.593 711.645C384.733 703.638 386.635 695.547 389.18 687.648C391.495 679.955 394.156 672.307 397.219 664.793C399.09 660.227 401.128 655.71 403.335 651.242C404.988 647.885 406.706 644.541 408.571 641.266C410.632 637.511 412.944 633.9 415.492 630.456C418 626.921 420.72 623.541 423.637 620.334C429.649 613.869 436.624 608.371 444.315 604.036C448.109 601.987 452.043 600.211 456.089 598.722C452.42 599.243 448.802 600.081 445.277 601.224C438.46 603.685 432.05 607.151 426.257 611.506L425.579 611.985C420.193 616.114 415.281 620.827 410.932 626.037C406.334 631.494 402.197 637.323 398.562 643.463C397.728 644.852 396.915 646.233 396.124 647.642C394.508 650.498 393.117 653.369 391.676 656.271ZM463.346 638.903C482.782 638.515 502.157 636.597 521.292 633.167C540.465 629.876 559.321 624.95 577.654 618.441C595.933 611.724 613.664 603.6 630.687 594.142C639.207 589.428 647.574 584.429 655.647 579.025C659.677 576.338 663.613 573.527 667.367 570.586C669.26 569.092 671.085 567.611 672.744 566.043C673.643 565.231 674.497 564.37 675.302 563.466C672.453 560.927 669.906 558.068 667.713 554.946L665.362 551.537L669.398 549.871C675.647 547.234 681.682 544.114 687.447 540.54C693.264 536.967 698.797 532.95 703.995 528.525C709.215 524.165 714.028 519.339 718.375 514.108C721.818 510.032 724.91 505.673 727.617 501.075L699.77 488.908L696.423 487.447L697.567 483.898C698.951 479.821 700.012 475.64 700.738 471.396C701.229 468.604 701.421 465.768 701.311 462.936C700.743 462.948 700.178 462.971 699.606 462.973C697.687 462.951 695.772 462.81 693.871 462.552C689.862 462.046 685.991 460.761 682.475 458.771L678.745 456.596L681.202 452.703C684.06 447.771 686.193 442.454 687.538 436.914C688.987 431.139 689.923 425.248 690.336 419.308C690.76 413.307 690.772 407.284 690.372 401.282C690.191 398.277 689.804 395.273 689.525 392.267L689.184 390.027C686.606 391.898 683.88 393.556 681.033 394.984C678.488 396.222 675.85 397.257 673.142 398.079C670.306 398.962 667.377 399.511 664.414 399.712L659.647 400.011L660.402 394.958C660.783 391.67 660.731 388.345 660.248 385.07C659.788 381.575 659.055 378.122 658.056 374.742C655.926 367.884 652.988 361.304 649.304 355.141C645.614 348.881 641.428 342.928 636.784 337.339L629.504 329.134L621.71 321.359L619.039 318.676L621.526 316.003C624.616 312.984 627.031 309.345 628.61 305.324C630.189 301.303 630.896 296.992 630.685 292.677C630.331 289.111 629.201 285.664 627.374 282.581C625.547 279.497 623.068 276.85 620.109 274.826C616.347 283.261 610.626 290.677 603.422 296.458C595.171 303.16 585.314 307.592 574.825 309.317L569.584 310.154L571.143 305.101C573.629 297.315 575.036 289.224 575.324 281.056C575.436 277.159 575.115 273.262 574.368 269.436C570.556 271.162 567.506 274.219 565.789 278.034C563.533 283.366 562.012 288.98 561.267 294.722C560.18 300.736 559.231 306.993 557.511 313.311C555.907 319.976 552.85 326.205 548.559 331.552L544.962 335.763L541.695 331.177C539.531 328.311 537.148 325.618 534.567 323.123C533.691 322.223 532.727 321.417 531.848 320.543C527.589 339.639 520.821 358.088 511.72 375.408C506.525 385.226 500.499 394.581 493.709 403.372C486.947 412.506 478.801 420.528 469.565 427.149L463.376 431.367L462.789 423.769C461.742 412.771 459.809 401.876 457.01 391.19C455.654 385.797 454.168 380.416 452.461 375.164C451.605 372.514 450.668 369.809 449.663 367.25C448.572 368.939 447.463 370.611 446.182 372.248C444.663 374.243 442.957 376.089 441.086 377.761C439.026 379.663 436.617 381.15 433.992 382.138L430.764 383.314L429.19 380.232C424.641 371.262 419.91 362.225 414.807 353.506C413.385 351.075 411.926 348.645 410.461 346.229C409.068 346.351 407.688 346.593 406.337 346.952C404.789 347.352 403.282 347.901 401.84 348.591C399.234 349.858 396.894 351.612 394.948 353.759C393.557 359.373 392.382 364.944 391.309 370.527C390.06 376.698 388.815 382.88 387.875 388.962C386.723 394.894 386.543 400.973 387.341 406.962C387.847 410.783 388.724 414.545 389.96 418.195L440.391 397.624L444.953 408.807L411.308 422.53C417.522 421.369 423.921 421.685 429.99 423.454C436.059 425.223 441.626 428.394 446.243 432.712C450.86 437.029 454.397 442.372 456.567 448.309C458.738 454.245 459.482 460.609 458.739 466.887C457.996 473.164 455.788 479.178 452.291 484.445C448.795 489.711 444.109 494.081 438.612 497.202C433.115 500.323 426.961 502.107 420.647 502.41C414.333 502.714 408.036 501.528 402.265 498.949C404.786 506.679 406.419 514.67 407.131 522.769C407.383 525.649 407.169 528.55 406.496 531.361C405.703 534.288 404.313 537.019 402.412 539.382C399.58 542.824 395.99 545.564 391.922 547.385C394.036 554.145 397.689 560.323 402.594 565.433C405.322 568.352 408.549 570.763 412.122 572.551C415.11 574.234 418.632 574.697 421.953 573.844L425.976 572.475L427.221 576.092C428.819 580.8 429.715 585.717 429.882 590.685C429.971 593.27 429.868 595.858 429.572 598.428C433.657 596.185 437.931 594.306 442.344 592.811C450.485 590.258 459.033 589.255 467.544 589.855C469.666 589.988 471.776 590.27 473.859 590.698C474.543 590.856 475.215 591.059 475.872 591.305C488 588.567 500.135 585.144 512.146 581.316C517.069 579.741 521.919 578.035 526.831 576.33C528.087 563.49 533.649 543.304 540.176 540.913C545.91 538.823 555.224 544.716 569.877 554.659C570.952 555.401 572.015 556.11 573.099 556.812C573.509 537.87 575.367 511.099 581.948 507.519C589.173 503.667 611.895 520.871 625.92 532.468C630.519 529.726 634.975 526.751 639.272 523.557C639.64 523.986 639.916 524.487 640.084 525.027C640.252 525.567 640.308 526.136 640.248 526.699C640.189 527.261 640.015 527.806 639.737 528.299C639.46 528.792 639.084 529.223 638.635 529.566C626.917 537.941 614.531 545.34 601.603 551.689C592.734 556.213 583.722 560.412 574.652 564.485L574.388 564.898L574.115 564.717C569.002 567.007 563.893 569.307 558.737 571.479C531.573 583.185 503.535 592.75 474.88 600.088L470.26 601.455C462.454 603.587 454.918 606.608 447.8 610.456C441.745 613.992 436.22 618.364 431.388 623.445C432.466 627.418 433.933 631.276 435.768 634.962C437.778 639.061 440.686 642.654 444.275 645.475C447.865 648.296 452.044 650.273 456.502 651.257C459.18 651.917 461.92 652.295 464.676 652.385C462.738 650.069 461.015 647.58 459.529 644.95L456.55 639.015L463.346 638.903ZM406.914 429.969C400.539 432.29 394.996 436.449 390.985 441.92C386.975 447.392 384.677 453.93 384.382 460.707C384.088 467.484 385.81 474.197 389.331 479.995C392.852 485.794 398.014 490.418 404.164 493.282C410.313 496.147 417.174 497.123 423.878 496.088C430.583 495.053 436.83 492.052 441.829 487.466C446.828 482.88 450.355 476.915 451.963 470.324C453.571 463.734 453.189 456.815 450.864 450.442C447.736 441.912 441.357 434.969 433.122 431.131C424.887 427.294 415.468 426.874 406.924 429.965L406.914 429.969ZM533.111 574.2C540.832 571.443 548.513 568.562 556.153 565.559C560.116 563.993 564.047 562.304 567.982 560.663L566.494 559.658C559.159 554.677 545.451 545.389 542.342 546.522C537.151 554.901 533.993 564.378 533.122 574.196L533.111 574.2ZM579.162 555.992C585.848 553.068 592.491 550.062 599.065 546.898C606.252 543.377 613.422 539.741 620.369 535.795C609.97 526.117 597.96 518.331 584.88 512.788C580.539 526.76 578.609 541.368 579.173 555.988L579.162 555.992ZM864.661 605.51C859.971 603.331 855.769 600.228 852.306 596.387C848.884 592.704 846.014 588.545 843.784 584.039L854.727 578.918C855.944 581.186 857.371 583.334 858.991 585.335C862.222 585.122 865.351 584.112 868.096 582.394C869.756 581.353 871.28 580.11 872.634 578.693C873.217 578.121 873.765 577.514 874.275 576.876C867.69 566.565 861.648 556.141 856.135 545.292C854.616 542.262 853.137 539.206 851.722 536.127L847.935 526.77L840.371 508.089L847.635 504.978L851.744 513.511L862.321 513.24C851.925 488.693 840.659 464.365 828.636 440.57C815.751 414.043 800.723 388.612 783.704 364.528L781.833 361.968L781.898 361.712C781.255 360.85 780.683 359.949 780.032 359.102C775.791 353.615 771.298 348.111 766.753 343.162L772.138 337.872C777.01 342.58 781.634 347.476 786.087 352.508C786.69 351.752 787.31 351.014 787.961 350.326C790.131 348.151 792.647 346.353 795.406 345.005C797.441 344.007 799.576 343.229 801.776 342.683C794.446 330.328 787.554 318.373 779.932 306.453C770.816 292.006 761.215 277.833 751.168 264.042C741.032 250.486 729.904 237.701 717.875 225.792C711.871 219.774 705.7 213.898 699.361 208.164C694.8 204.11 690.221 200.039 685.987 195.61C679.48 196.2 672.921 195.605 666.627 193.854L667.486 190.226L668.342 186.587C673.548 187.428 678.858 187.396 684.053 186.492L688.229 189.187C689.106 189.623 688.458 186.105 688.875 185.442L689.165 185.336C690.761 184.913 692.332 184.401 693.872 183.804C683.429 178.769 673.259 173.188 663.403 167.083C650.301 159.018 637.824 149.979 626.078 140.041C614.481 129.933 603.649 118.979 593.672 107.269C585.295 97.6591 577.471 87.7259 569.799 77.5423C568.961 78.6347 568.204 79.7864 567.533 80.9884C565.64 84.6224 564.359 88.5439 563.743 92.5948L560.185 92.4288L556.62 92.2778C556.526 88.9921 556.778 85.7056 557.373 82.4727C554.231 77.7311 551.185 73.0159 547.924 68.4153C544.393 63.3766 540.792 58.3761 536.984 53.5117C533.176 48.6473 529.229 43.8702 525.052 39.2986C522.785 36.8221 520.423 34.3555 518.032 31.973C507.474 54.8494 494.832 76.7051 480.266 97.2635C473.847 106.403 467.126 115.251 460.299 124.04C460.518 124.642 460.738 125.245 460.872 125.878C463.073 134.343 463.156 143.22 461.113 151.725L458.047 151.002L454.969 150.283C455.718 146.593 455.95 142.817 455.658 139.064C455.429 136.549 455.002 134.056 454.379 131.608C454.089 130.41 453.827 129.189 453.421 128.009C452.336 124.608 450.907 121.327 449.158 118.216C449.071 117.979 448.981 117.732 448.805 117.516C448.433 116.896 447.992 116.289 447.594 115.666C446.062 119.32 444.421 122.843 442.728 126.324C441.035 129.805 439.215 133.405 437.343 136.963C432.305 146.55 426.798 155.918 421.071 165.086C415.345 174.254 409.407 183.243 403.286 192.164C401.415 194.857 399.452 197.461 397.558 200.125L399.953 198.168C392.386 207.836 385.006 217.618 378.088 227.696C363.822 248.2 351.811 270.184 342.264 293.266C347.192 295.517 351.403 299.086 354.431 303.578C358.32 309.731 360.777 316.678 361.621 323.907C363.056 336.951 362.945 350.118 361.291 363.136C359.972 375.804 358.151 388.363 356.6 400.762C354.812 412.874 353.972 425.106 354.089 437.349C354.196 440.216 354.488 443.073 354.964 445.903L356.842 454.968C358.097 461.189 359.347 467.461 360.373 473.754C362.568 486.405 364.038 499.171 364.776 511.99C366.455 536.587 363.627 561.284 356.428 584.865C358.358 586.105 360.596 586.78 362.89 586.812C364.932 586.87 366.973 586.675 368.967 586.231C371.012 585.793 373.008 585.156 374.928 584.327L385.662 579.537L383.939 591.231C383.677 593.491 383.602 595.768 383.715 598.04C383.812 600.552 384.053 603.056 384.438 605.54C385.242 610.612 386.457 615.611 388.069 620.487C389.538 624.788 391.249 629.002 393.193 633.11C400.379 622.116 409.417 612.451 419.906 604.546C420.481 604.117 421.101 603.745 421.691 603.323C422.453 599.372 422.66 595.334 422.304 591.327C422.005 588.389 421.424 585.486 420.571 582.659C416.43 582.933 412.292 582.088 408.589 580.213C404.099 577.987 400.041 574.98 396.603 571.333C389.658 564.324 384.928 555.426 383.002 545.749L382.32 541.939L386.061 541.002C390.193 539.969 393.944 537.777 396.873 534.685C398.275 533.107 399.333 531.254 399.982 529.245C400.63 527.236 400.854 525.115 400.639 523.015C400.119 513.568 398.443 504.22 395.651 495.18C390.273 491.444 385.888 486.45 382.877 480.634C379.867 474.818 378.323 468.355 378.378 461.806C378.433 455.257 380.086 448.82 383.194 443.055C386.302 437.291 390.77 432.372 396.211 428.726L368.254 440.133L363.691 428.95L382.64 421.216C381.51 416.713 380.728 412.129 380.3 407.505C379.815 400.912 380.211 394.284 381.478 387.796C382.593 381.491 383.901 375.481 384.848 369.42C385.796 363.359 386.519 357.282 387.034 351.171L387.16 349.712L388.032 348.76C390.853 345.478 394.323 342.815 398.223 340.939C400.145 340.019 402.152 339.288 404.215 338.755C404.667 338.591 405.13 338.556 405.584 338.464C403.278 334.978 400.89 331.57 398.255 328.387L402.575 324.655C409.357 332.537 415.487 340.957 420.903 349.834C425.609 357.43 430.068 365.116 434.224 373.01C436.314 371.393 438.163 369.488 439.718 367.352C442.241 363.963 444.425 360.334 446.239 356.518L449.654 349.435L453.551 356.047C456.474 361.293 458.822 366.841 460.555 372.592C462.343 378.034 463.905 383.558 465.36 389.122C467.594 397.72 469.365 406.431 470.666 415.219C476.553 409.987 481.899 404.176 486.624 397.874C493.047 389.445 498.754 380.492 503.683 371.11C513.719 352.34 520.913 332.185 525.031 311.302L526.559 303.689L532.255 308.853C534.786 311.148 538.622 314.82 541.351 317.591L541.567 317.817L542.443 318.716C543.309 319.62 544.174 320.523 545.043 321.535C546.894 318.234 548.321 314.712 549.291 311.054C550.892 305.413 551.829 299.392 552.97 293.224C553.959 286.671 555.973 280.315 558.939 274.388C560.743 271.203 563.231 268.457 566.222 266.347C568.179 265.068 570.332 264.118 572.596 263.537C571.899 261.878 571 260.31 569.92 258.87L574.49 255.157C577.341 258.91 579.319 263.252 580.28 267.867C581.221 272.241 581.663 276.708 581.598 281.182C581.473 288.066 580.575 294.914 578.921 301.596C586.289 299.531 593.139 295.938 599.027 291.052C606.294 285.163 611.805 277.392 614.959 268.586L616.233 264.758L619.886 266.388C624.883 268.703 629.19 272.281 632.379 276.77C635.569 281.259 637.532 286.503 638.074 291.983C638.588 297.418 637.754 302.896 635.647 307.932C634.031 311.656 631.897 315.133 629.308 318.261L635.009 323.873L642.669 332.416C647.615 338.311 652.078 344.596 656.013 351.209C660.041 357.881 663.257 365.01 665.592 372.446C666.737 376.236 667.578 380.11 668.109 384.033C668.416 386.335 668.577 388.653 668.591 390.975C669.354 390.794 670.121 390.625 670.821 390.406C673.109 389.7 675.337 388.814 677.485 387.758C681.815 385.573 685.826 382.808 689.407 379.538L694.976 374.486L696.125 381.818L697.592 391.229C697.89 394.386 698.31 397.548 698.518 400.726C698.969 407.102 698.984 413.502 698.564 419.88C698.15 426.324 697.16 432.717 695.605 438.984C694.39 443.87 692.688 448.622 690.524 453.169C691.993 453.665 693.505 454.028 695.039 454.253C696.578 454.481 698.13 454.607 699.686 454.632C701.209 454.664 702.733 454.602 704.249 454.444L708.053 454.081L708.859 457.529C709.882 462.575 709.857 467.777 708.786 472.814C708.149 476.287 707.299 479.719 706.242 483.089L734.789 495.841L738.79 497.625L736.616 501.257C733.009 507.563 728.823 513.519 724.112 519.049C719.446 524.567 714.291 529.651 708.71 534.241C703.185 538.852 697.312 543.03 691.144 546.736C686.212 549.679 681.083 552.277 675.793 554.512C678.961 558.276 682.629 561.589 686.695 564.36C692.007 568.024 697.716 571.078 703.712 573.466L701.78 578.934C695.238 576.532 688.988 573.396 683.152 569.587C682.745 569.309 682.338 568.994 681.932 568.716C680.835 569.964 679.675 571.156 678.456 572.286C676.528 574.085 674.555 575.694 672.57 577.27C668.567 580.399 664.481 583.301 660.327 586.083C652.023 591.656 643.496 596.75 634.773 601.574C617.358 611.243 599.221 619.548 580.523 626.414C561.734 633.093 542.408 638.151 522.755 641.53C505.305 644.607 487.664 646.483 469.958 647.145C471.276 649.418 472.76 651.59 474.398 653.644C477.263 657.487 480.917 660.672 485.115 662.986L483.728 666.806C478.809 665.022 474.328 662.21 470.582 658.557C465.432 658.936 460.256 658.647 455.181 657.698C449.713 656.629 444.537 654.401 440.003 651.163C435.552 647.834 431.848 643.607 429.132 638.758C427.615 636.088 426.314 633.302 425.242 630.425C424.004 631.906 422.868 633.468 421.84 635.102C419.495 638.369 417.38 641.795 415.51 645.355C412.965 650.011 410.697 654.823 408.546 659.69C412.162 665.675 415.384 671.89 418.19 678.295C420.577 683.703 422.421 689.334 423.695 695.106C424.416 698.589 424.765 702.138 424.738 705.695C425.74 705.484 426.729 705.217 427.701 704.895C430.791 703.74 433.665 702.075 436.204 699.969L436.101 699.251L434.862 693.377L442.794 690.596C444.653 694.683 446.153 698.923 447.279 703.27C448.349 707.754 448.926 712.341 448.998 716.951C448.971 721.707 448.341 726.441 447.125 731.04C446.518 733.399 445.685 735.694 444.638 737.893L444.116 738.937C445.055 739.606 446.008 740.282 446.96 740.886C449.482 742.52 452.096 744.009 454.788 745.346C460.025 748.01 465.599 749.952 471.358 751.117L476.071 752.044L476.682 756.696C477.159 760.93 476.827 765.216 475.702 769.326C474.738 773.004 473.416 776.58 471.756 780.002C470.209 783.289 468.466 786.48 466.537 789.558C466.29 789.952 466.022 790.318 465.743 790.724C469.842 791.405 474.006 791.609 478.152 791.333C485.485 790.739 492.716 789.238 499.68 786.864C506.846 784.493 513.76 781.423 520.324 777.696C525.5 774.676 530.53 771.356 535.427 767.804C534.246 766.236 533.069 764.678 531.885 763.001C533.653 761.688 535.841 761.07 538.034 761.264C540.228 761.457 542.274 762.449 543.785 764.052C546.273 766.667 548.873 769.217 551.497 771.637C554.575 774.426 557.813 777.035 561.194 779.449C561.79 778.745 562.415 778.054 563.073 777.351C565.134 775.199 567.376 773.228 569.775 771.46C574.449 767.99 579.566 765.161 584.991 763.05C595.284 759.107 605.948 756.213 616.821 754.412C627.628 752.66 638.57 751.882 649.515 752.09C657.745 752.198 665.961 752.873 673.978 753.668C673.141 747.66 672.457 741.669 672.168 735.559C671.896 731.096 671.893 726.62 672.159 722.157C672.313 720.138 672.499 718.108 672.801 716.06C672.945 715.1 673.295 714.183 673.826 713.37C674.357 712.557 675.058 711.869 675.879 711.352C676.701 710.835 677.625 710.501 678.587 710.374C679.55 710.247 680.529 710.329 681.456 710.615C680.687 714.255 680.381 717.979 680.546 721.696C686.732 721.466 692.924 721.923 699.008 723.06C702.91 723.735 706.734 724.596 710.552 725.642C712.713 726.256 714.844 726.918 716.988 727.684C723.383 711.323 733.85 696.866 747.397 685.683C758.55 676.45 771.451 669.56 785.327 665.425C787.625 664.673 789.988 664.202 792.322 663.583L798.811 661.925C815.956 657.623 832.298 650.593 847.213 641.106C859.838 633.244 871.289 623.639 881.227 612.575L864.661 605.51ZM563.246 792.473C562.902 792.598 552.883 784.501 540.308 776.75C528.637 784.704 516.376 791.755 503.632 797.842C495.005 800.729 486.102 802.716 477.066 803.77L474.824 803.77L464.332 803.206C460.421 802.708 456.577 801.774 452.873 800.423L444.894 797.457L450.167 790.49C451.935 788.151 453.792 785.354 455.417 782.69C457.053 780.018 458.527 777.251 459.831 774.403C461.656 770.677 462.871 766.684 463.431 762.573C458.384 761.185 453.489 759.294 448.821 756.929C445.722 755.35 442.716 753.597 439.815 751.68C436.837 749.737 433.988 747.604 431.284 745.295L426.653 741.315L430.676 736.302C431.589 735.056 432.381 733.727 433.044 732.332C433.809 730.722 434.475 729.066 435.04 727.376C436.17 723.86 436.861 720.219 437.098 716.534C437.145 715.628 437.134 714.693 437.156 713.784C435.455 714.736 433.685 715.556 431.859 716.238C429.581 717.092 427.231 717.741 424.838 718.175C422.293 718.659 419.701 718.852 417.113 718.748L409.352 718.419L411.774 710.821C412.818 706.48 412.782 701.949 411.669 697.624C410.542 692.664 408.927 687.827 406.846 683.185C405.559 680.254 404.135 677.384 402.647 674.539C400.799 679.734 399.133 684.96 397.582 690.303C395.239 698.054 393.492 706.003 391.536 713.846L389.11 725.784C388.389 729.923 387.441 734.02 386.27 738.055C383.321 746.287 378.681 753.811 372.65 760.142C366.957 766.401 360.649 772.072 353.822 777.07C340.251 787.214 325.05 794.97 308.873 800.007C292.111 805.47 274.101 805.813 257.143 800.992C254.388 799.823 251.928 798.055 249.943 795.816C248.346 794.158 246.864 792.393 245.507 790.534C242.83 787.001 240.601 783.425 238.375 779.825C234.031 772.621 230.112 765.311 226.354 757.942L220.855 746.832L218.185 741.176C217.034 738.625 216.335 735.894 216.121 733.104C215.691 727.519 217.163 721.953 220.298 717.311C221.839 715.024 223.74 713.002 225.928 711.322C227.763 709.971 229.154 709.038 230.733 707.987C244.99 698.445 260.452 690.84 276.712 685.369L279.72 684.358C280.667 684.013 281.667 683.649 283.151 683.339C287.205 682.369 291.44 682.451 295.454 683.577C299.467 684.704 303.126 686.839 306.082 689.778C307.997 691.705 309.589 693.927 310.796 696.36L313.546 701.732C315.399 705.31 317.313 708.89 319.274 712.332C321.234 715.773 323.261 719.227 325.405 722.467C327.269 725.499 329.467 728.312 331.958 730.853C332.637 731.524 333.529 731.936 334.479 732.018C335.859 732.199 337.26 732.138 338.618 731.838C341.93 731.097 345.082 729.766 347.924 727.911C350.883 726.058 353.519 723.735 355.729 721.033C356.781 719.774 357.673 718.389 358.382 716.909C359.108 715.378 359.667 713.772 360.049 712.121C362.419 704.177 364.227 696.096 367.057 688.276L371.129 676.506C371.587 675.121 372.13 673.838 372.718 672.539C375.568 665.106 378.949 657.887 382.834 650.937L383.426 641.861C380.566 636.249 378.101 630.445 376.048 624.49C374.184 618.942 372.779 613.25 371.845 607.472C371.394 604.612 371.101 601.728 370.965 598.836C368.124 599.435 365.224 599.703 362.322 599.633C358.902 599.535 355.534 598.776 352.403 597.398C349.131 595.922 346.241 593.714 343.958 590.945L341.729 588.174L342.917 584.743C350.461 561.514 353.474 537.052 351.794 512.686C351.098 500.357 349.699 488.078 347.605 475.908C346.599 469.803 345.404 463.682 344.188 457.568L342.249 448.135C341.68 444.753 341.335 441.337 341.216 437.909C341.067 424.948 341.942 411.997 343.834 399.174C345.426 386.589 347.274 374.167 348.516 361.857C350.084 349.876 350.251 337.754 349.014 325.735C348.443 320.405 346.7 315.268 343.91 310.691C342.602 308.744 340.915 307.081 338.949 305.802C336.984 304.522 334.78 303.653 332.47 303.245L325.201 301.726L327.85 294.814C338.133 268.569 351.512 243.645 367.704 220.572C374 211.428 380.652 202.594 387.413 193.89C389.49 191.061 391.641 188.303 393.694 185.508C399.803 176.822 405.861 168.094 411.557 159.145C417.254 150.195 422.785 141.16 427.846 131.905C432.965 122.877 437.412 113.485 441.151 103.803L444.518 94.0454L449.932 101.98C451.808 104.752 453.498 107.646 454.99 110.643C460.189 103.873 465.323 97.1271 470.197 90.1348C486.061 67.9786 499.56 44.2207 510.471 19.2505L513.832 11.42L520.064 17.0829C525.096 21.6598 529.494 26.2361 533.971 31.0638C538.448 35.8915 542.52 40.8789 546.495 45.9995C550.504 51.1621 554.146 56.5988 557.396 62.2698C558.85 64.7238 560.177 67.2502 561.374 69.8391C562.608 67.363 564.174 65.0663 566.027 63.0122L571.043 58.3814L575.252 63.9774C584.132 75.8047 593.694 87.3957 603.438 98.6158C613.041 109.841 623.402 120.395 634.448 130.202C645.588 139.896 657.439 148.74 669.903 156.659C682.288 164.734 695.18 172.005 708.498 178.425L717.708 182.795L709.422 187.948C706.362 189.817 703.099 191.333 699.697 192.466C702.321 194.582 704.884 196.767 707.388 199.024C713.882 204.847 720.222 210.84 726.408 217.003C738.906 229.316 750.472 242.54 761.009 256.568C771.292 270.606 781.085 284.948 790.388 299.595C799.711 314.076 808.519 329.55 817.124 343.732L822.54 352.642L812.218 353.478C810.21 353.617 808.215 353.896 806.246 354.314C804.436 354.729 802.678 355.349 801.008 356.162C799.515 356.883 798.154 357.849 796.98 359.019C796.674 359.35 796.433 359.694 796.135 360.046C812.671 383.733 827.379 408.644 840.134 434.564C846.92 447.934 853.235 461.586 859.41 475.252C865.585 488.919 871.487 502.673 877.117 516.684L880.432 524.945L871.558 525.108L857.445 525.376C859.872 530.463 862.351 535.495 865.133 540.319C871.585 551.724 878.654 562.769 886.307 573.406L888.546 576.441L886.744 579.657C885.258 582.317 883.433 584.772 881.314 586.962C879.258 589.107 876.942 590.986 874.42 592.557C873.2 593.338 871.922 594.024 870.597 594.609L893.664 604.398L901.223 607.615L896.454 613.692C895.869 614.429 895.248 615.131 894.659 615.857L888.969 622.416C879.229 632.875 868.2 642.054 856.146 649.733C839.116 660.637 820.355 668.562 800.666 673.169L794.872 674.561C792.786 675.09 790.659 675.475 788.601 676.115C785.572 677 771.85 682.487 768.919 683.641L759.039 689.606L754.303 693.867C740.702 704.745 730.456 719.248 724.748 735.703L722.912 741.064L717.782 738.558C714.628 737.103 711.36 735.909 708.011 734.989C704.523 733.981 700.965 733.145 697.349 732.488C692.071 731.431 686.695 730.939 681.312 731.02C681.446 732.19 681.558 733.368 681.744 734.58C682.969 742.818 684.718 750.969 686.981 758.984L689.284 767.31L680.492 766.394C664.546 764.443 648.496 763.454 632.431 763.434C619.814 763.122 607.257 765.288 595.474 769.809C582.769 774.095 571.576 781.967 563.246 792.473Z" fill="black"/>
<path d="M541.391 317.6L541.611 317.83L541.391 317.6Z" fill="#1A110C"/>
<path d="M688.844 185.367C688.428 186.031 689.076 189.548 688.198 189.113L684.023 186.417C684.917 186.262 685.823 186.139 686.712 185.937C687.425 185.787 688.136 185.564 688.844 185.367Z" fill="#1A110C"/>
<path d="M555.632 486.056C555.842 488.409 555.781 490.778 555.451 493.117C555.411 493.334 555.325 493.539 555.2 493.721C555.075 493.902 554.913 494.055 554.725 494.169C554.537 494.284 554.326 494.358 554.108 494.386C553.889 494.414 553.667 494.395 553.456 494.331L553.109 494.214C552.325 493.942 551.649 493.426 551.181 492.741C550.712 492.056 550.475 491.24 550.504 490.411C550.528 489.091 550.478 487.77 550.355 486.455C550.148 484.004 549.732 481.575 549.11 479.194C548.671 477.118 547.788 475.161 546.52 473.459C546.297 473.114 544.88 472.704 544.154 472.25C543.138 471.938 541.998 471.817 540.917 471.528C530.879 471.325 520.904 473.153 511.59 476.902C506.794 478.662 502.103 480.697 497.541 482.997C493.172 485.053 489.154 487.784 485.634 491.09C483.483 492.812 485.517 497.86 488.477 501.534C490.868 504.552 493.52 507.354 496.403 509.907C497.078 510.53 497.509 511.373 497.618 512.285C497.727 513.196 497.507 514.117 496.998 514.882C496.882 515.058 496.732 515.209 496.556 515.325C496.381 515.441 496.183 515.521 495.976 515.559C495.769 515.597 495.556 515.592 495.351 515.546C495.145 515.499 494.952 515.411 494.781 515.287C490.723 512.381 487.073 508.944 483.927 505.069C482.035 502.805 480.527 500.246 479.461 497.495C478.876 495.885 478.625 494.172 478.724 492.462C478.877 490.539 479.65 488.718 480.927 487.272C484.968 483.325 489.653 480.097 494.78 477.727C499.571 475.332 504.501 473.226 509.544 471.42C519.712 467.366 530.613 465.468 541.553 465.849C543.026 466.178 544.481 466.391 545.947 466.868L548.145 467.919C548.996 468.261 549.766 468.777 550.404 469.436C552.38 471.842 553.727 474.701 554.326 477.756C554.996 480.481 555.433 483.257 555.632 486.056V486.056Z" fill="#1A110C"/>
<path d="M550.18 414.248C547.228 406.118 546.964 397.254 549.428 388.963C551.891 380.671 556.952 373.39 563.864 368.19L533.192 378.6L529.314 367.155L614.24 338.339L618.118 349.784L587.521 360.166C594.917 360.07 602.196 362.01 608.562 365.774C614.929 369.539 620.137 374.983 623.616 381.51C627.095 388.036 628.711 395.394 628.287 402.778C627.863 410.162 625.416 417.287 621.213 423.373C617.01 429.459 611.214 434.271 604.458 437.283C597.703 440.294 590.249 441.389 582.913 440.447C575.577 439.505 568.642 436.563 562.867 431.943C557.091 427.323 552.698 421.202 550.169 414.252L550.18 414.248ZM620.284 388.701C617.952 382.336 613.787 376.806 608.314 372.807C602.842 368.808 596.307 366.52 589.535 366.233C582.763 365.946 576.058 367.672 570.266 371.193C564.474 374.714 559.856 379.872 556.994 386.016C554.132 392.16 553.154 399.014 554.185 405.714C555.216 412.413 558.209 418.656 562.786 423.655C567.363 428.655 573.319 432.185 579.901 433.802C586.483 435.419 593.397 435.049 599.77 432.739C608.33 429.619 615.3 423.227 619.147 414.968C622.994 406.71 623.403 397.261 620.284 388.701Z" fill="#1A110C"/>
<path d="M265.366 723.641C250.631 730.595 237.842 733.928 236.766 731.078C235.691 728.228 246.784 720.273 261.504 713.312C276.225 706.351 289.033 703.037 290.093 705.88C291.154 708.723 280.087 716.68 265.366 723.641Z" fill="#1A110C"/>
<path d="M410.513 474.505C408.839 475.115 407.021 475.216 405.289 474.793C403.558 474.37 401.991 473.443 400.786 472.129C399.581 470.816 398.793 469.174 398.522 467.413C398.25 465.651 398.506 463.849 399.259 462.233C400.011 460.618 401.226 459.261 402.75 458.336C404.273 457.411 406.037 456.958 407.817 457.035C409.598 457.112 411.316 457.715 412.754 458.769C414.192 459.822 415.285 461.278 415.895 462.953C416.302 464.065 416.485 465.246 416.435 466.428C416.384 467.611 416.101 468.772 415.601 469.846C415.101 470.919 414.394 471.883 413.521 472.682C412.648 473.482 411.626 474.101 410.513 474.505V474.505Z" fill="#1A110C"/>
<path d="M579.919 412.77C578.245 413.38 576.427 413.48 574.695 413.057C572.964 412.634 571.397 411.707 570.192 410.394C568.988 409.08 568.2 407.439 567.928 405.677C567.656 403.916 567.912 402.113 568.665 400.498C569.418 398.882 570.632 397.526 572.156 396.601C573.679 395.676 575.443 395.223 577.224 395.3C579.004 395.377 580.722 395.98 582.16 397.033C583.598 398.087 584.691 399.543 585.301 401.217C585.708 402.329 585.891 403.51 585.841 404.693C585.791 405.876 585.507 407.037 585.007 408.11C584.507 409.183 583.801 410.147 582.928 410.947C582.055 411.747 581.032 412.366 579.919 412.77V412.77Z" fill="#1A110C"/>
<path d="M184.829 672.256C177.767 673.823 170.4 673.263 163.659 670.648C156.917 668.033 151.105 663.479 146.957 657.563C142.809 651.648 140.511 644.635 140.355 637.413C140.198 630.19 142.189 623.082 146.076 616.988C149.964 610.893 155.572 606.086 162.194 603.173C168.815 600.261 176.15 599.374 183.274 600.625C190.397 601.876 196.988 605.209 202.212 610.202C207.437 615.196 211.06 621.625 212.625 628.677C214.723 638.134 212.973 648.038 207.761 656.21C202.548 664.383 194.299 670.155 184.829 672.256ZM171.22 614.155C170.156 614.399 169.112 614.725 168.097 615.13C175.056 618.07 181.088 622.835 185.556 628.92C190.023 635.005 192.76 642.183 193.477 649.697C196.343 646.096 198.021 641.698 198.281 637.108C198.542 632.517 197.371 627.96 194.931 624.062C192.49 620.165 188.9 617.12 184.653 615.346C180.407 613.572 175.715 613.156 171.22 614.155Z" fill="#E9D7BD"/>
<path d="M58.889 491.415C71.7408 488.539 85.207 490.88 96.3252 497.921C107.443 504.963 115.303 516.129 118.175 528.962C121.046 541.796 118.695 555.247 111.638 566.355C104.581 577.463 93.396 585.319 80.5442 588.195V588.195C67.6921 591.069 54.2262 588.727 43.109 581.684C31.9919 574.641 24.134 563.474 21.2642 550.639C18.3943 537.805 20.7474 524.355 27.806 513.248C34.8645 502.14 46.0503 494.286 58.9025 491.412L58.889 491.415ZM98.3606 545.044C101.576 541.287 103.412 536.547 103.564 531.609C103.716 526.671 102.175 521.829 99.1968 517.886C96.4834 513.81 92.6191 510.632 88.0936 508.753C83.5682 506.874 78.5853 506.379 73.7765 507.331C71.6115 507.807 69.533 508.615 67.615 509.726C75.7177 511.812 82.9946 516.305 88.484 522.611C93.9734 528.917 97.4172 536.739 98.3606 545.044V545.044Z" fill="#E9D7BD"/>
<path d="M91.5673 439.046L90.9763 439.177C72.1174 443.02 52.5062 439.29 36.3892 428.795C20.2723 418.3 8.94686 401.885 4.86519 383.104C0.783526 364.322 4.27416 344.687 14.5813 328.449C24.8885 312.211 41.1825 300.678 59.9352 296.346L60.0696 296.316C78.9106 292.427 98.5229 296.102 114.663 306.546C130.803 316.991 142.173 333.364 146.313 352.124C150.453 370.884 147.03 390.522 136.784 406.789C126.539 423.056 110.295 434.644 91.5673 439.046V439.046ZM119.217 329.526C114.045 323.456 107.335 318.887 99.788 316.297C92.2409 313.707 84.1341 313.19 76.316 314.801C72.2801 315.7 68.405 317.209 64.8257 319.278C80.0422 321.646 93.9733 329.18 104.271 340.612C114.568 352.045 120.603 366.675 121.357 382.038C127.016 374.326 129.886 364.924 129.495 355.373C129.104 345.823 125.475 336.69 119.205 329.472L119.217 329.526Z" fill="#E9D7BD"/>
</g>
</g>
</svg>
